<?xml version="1.0" encoding="UTF-8"?>
<svg width="115px" height="16px" viewBox="0 0 115 16" version="1.1" xmlns="http://www.w3.org/2000/svg" xmlns:xlink="http://www.w3.org/1999/xlink">
    <!-- Generator: Sketch 40.3 (33839) - http://www.bohemiancoding.com/sketch -->
    <title>Line</title>
    <desc>Created with Sketch.</desc>
    <defs></defs>
    <g id="Designs-r2" stroke="none" stroke-width="1" fill="none" fill-rule="evenodd" stroke-linecap="square">
        <g id="Email-Signup-page" transform="translate(-79.000000, -200.000000)" stroke="#CC5C5C" stroke-width="2.19999981">
            <path d="M81,207.738901 C81,208.538557 84.3950047,215.569056 91.7116979,213.678495 C99.0283911,211.787934 97.1668335,204.356562 102.397961,202.226665 C107.629089,200.096767 109.93901,213.678495 116.928189,213.678495 C123.917369,213.678495 124.96342,202.226665 131.864428,202.226665 C138.765437,202.226665 138.259372,213.678495 145.317738,213.678495 C152.376103,213.678495 152.386184,202.226665 159.25827,202.226665 C166.130356,202.226665 167.299592,213.678495 174.24435,213.678495 C181.189109,213.678495 180.285789,203.206532 184.774925,202.226665 C189.264061,201.246798 192.067648,207.738901 192.067648,207.738901" id="Line"></path>
        </g>
    </g>
</svg>